# xmcd
#
# Track frame offsets:
#	183
#	26423
#	50643
#	69028
#	87563
#	128195
#	147153
#	168930
#	195345
#	233268
#	267488
#
# Disc length: 3738 seconds
#
# Revision: 1
# Processed by: cddbd v1.4b42PL1 Copyright (c) Steve Scherf et al.
# Submitted via: audiograbber 1.80
#
DISCID=8b0e980b
DTITLE=Stairway - Moonstone
DYEAR=1900
DGENRE=
TTITLE0=The Lovers
TTITLE1=Sunset Point
TTITLE2=Bird of Paradise
TTITLE3=Blue Pool
TTITLE4=Alcazar
TTITLE5=Lavander Dawn
TTITLE6=Looking Inside
TTITLE7=AquaMarine
TTITLE8=Island of Jewels
TTITLE9=Ship of Happiness
TTITLE10=Dolphin Voices
EXTD=
EXTT0=
EXTT1=
EXTT2=
EXTT3=
EXTT4=
EXTT5=
EXTT6=
EXTT7=
EXTT8=
EXTT9=
EXTT10=
PLAYORDER=
